<svg xmlns="http://www.w3.org/2000/svg" viewBox="0 0 175.78 106.64"><defs><style>.e0b49914-b9dd-4788-949c-83fc50b8bf5e{fill:#124764;}.b139cb2e-1d72-4e23-a0e3-f708652454fa{fill:#0f1629;}.b47e3424-2ef2-4b0a-8fd8-9829e94e50b6{fill:#212c3f;}.a74c37d6-44e9-4cc8-8f01-5d3a418ea1a0{fill:#20193f;}.f5922a8e-53ba-4fc3-940b-3421f2d3d687{fill:#fff;}.e1887fb0-8ca8-4eac-80f7-e023b7ec3d8e{fill:none;}</style></defs><g id="b85d9bfc-bc1c-4adc-9bf4-8a71d6dec4f2" data-name="Layer 2"><g id="b2c89396-9715-48f4-9cbd-bf8ae878dbcc" data-name="Layer 1"><g id="ba82e497-2a61-42a8-8761-f1bbbf30ba0c" data-name="eea220fc-ee9a-4777-b7b5-aa30666f019d"><path class="e0b49914-b9dd-4788-949c-83fc50b8bf5e" d="M32.22,11.56a6.32,6.32,0,0,0-3.1.81,10.7,10.7,0,0,0-5.62,9.22v9.25a.65.65,0,0,0,.66.58.62.62,0,0,0,.62-.58V21.59a9.64,9.64,0,0,1,5-8.25,4.79,4.79,0,0,1,4.53,0,3.88,3.88,0,0,1,2.32,3.45v7.74a.62.62,0,0,0,.62.58.62.62,0,0,0,.66-.58h0V16.79a5,5,0,0,0-3.1-4.61A6.16,6.16,0,0,0,32.22,11.56Z"></path><polygon class="b139cb2e-1d72-4e23-a0e3-f708652454fa" points="61.34 14.35 54.83 12.1 52.39 9.12 49.22 66.7 61.72 58.34 61.34 14.35"></polygon><polygon class="b47e3424-2ef2-4b0a-8fd8-9829e94e50b6" points="0 89.66 49.26 66.7 52.43 9.12 3.17 37.35 0 89.66"></polygon><polygon class="b47e3424-2ef2-4b0a-8fd8-9829e94e50b6" points="13.09 83.54 13.47 97.52 0 89.66 13.09 83.54"></polygon><polygon class="e0b49914-b9dd-4788-949c-83fc50b8bf5e" points="12.12 42.58 9.1 38.82 3.17 37.35 0 89.66 13.05 83.62 12.12 42.58"></polygon><polygon class="e0b49914-b9dd-4788-949c-83fc50b8bf5e" points="13.47 97.52 62.73 69.29 61.38 14.35 12.12 42.58 13.47 97.52"></polygon><path class="a74c37d6-44e9-4cc8-8f01-5d3a418ea1a0" d="M41.59,33.36c0,.85.62,1.2,1.35.77a2.91,2.91,0,0,0,1.32-2.28c0-.85-.58-1.2-1.32-.78A3,3,0,0,0,41.59,33.36Z"></path><path class="a74c37d6-44e9-4cc8-8f01-5d3a418ea1a0" d="M28.31,40.91c0,.85.62,1.2,1.35.77A2.93,2.93,0,0,0,31,39.4c0-.85-.58-1.2-1.32-.77A2.92,2.92,0,0,0,28.31,40.91Z"></path><path class="f5922a8e-53ba-4fc3-940b-3421f2d3d687" d="M43.45,32.54V25.89a5.06,5.06,0,0,0-3-4.5,6.2,6.2,0,0,0-2.74-.65,5.81,5.81,0,0,0-3.1.85A10.65,10.65,0,0,0,29,30.65v9.71c0,.34.32.34.66.32h0a.58.58,0,0,0,.62-.54V30.65a9.65,9.65,0,0,1,5-8.25,4.92,4.92,0,0,1,4.54,0,3.88,3.88,0,0,1,2.32,3.49V33c0,.32,1,.34,1.26-.24"></path><polygon class="b139cb2e-1d72-4e23-a0e3-f708652454fa" points="12.12 42.58 9.1 38.82 7.55 86.37 13.47 97.52 12.12 42.58"></polygon></g><path class="f5922a8e-53ba-4fc3-940b-3421f2d3d687" d="M31.27,81.22l-6.79-4c-1.3-.76-2.16-2.38-2.16-4.68V58.07A15.35,15.35,0,0,1,30,44.73l12.56-7.28c.14-.09.3-.17.45-.25l.13-.06.35-.16h.08l.33-.13H44l.39-.12h.32l.32-.07h1.54l.37.1h0l.33.11h.09l.27.13h0l6.77,3.93L39.05,49.81a15.32,15.32,0,0,0-7.78,13.37Z"></path><path class="f5922a8e-53ba-4fc3-940b-3421f2d3d687" d="M40.21,72.27,52.74,58H40.21Z"></path><rect class="e1887fb0-8ca8-4eac-80f7-e023b7ec3d8e" width="62.73" height="106.64"></rect><path class="b139cb2e-1d72-4e23-a0e3-f708652454fa" d="M81.93,67.48v-21a1.4,1.4,0,0,1,.31-1,1.32,1.32,0,0,1,1-.32H93.89a.8.8,0,0,1,.75.4,2.71,2.71,0,0,1,.23,1.27v1a2.71,2.71,0,0,1-.23,1.27.8.8,0,0,1-.75.4h-7v5.87h6.75a.8.8,0,0,1,.74.4A2.73,2.73,0,0,1,94.64,57v1a2.71,2.71,0,0,1-.23,1.27.8.8,0,0,1-.74.4H86.92v7.75c0,.71-.64,1.06-1.94,1.06h-1.1C82.58,68.54,81.93,68.19,81.93,67.48Z"></path><path class="b139cb2e-1d72-4e23-a0e3-f708652454fa" d="M98.34,48.24v-2.6c0-.71.79-1.07,2.39-1.07s2.4.36,2.4,1.07v2.6c0,.72-.8,1.07-2.4,1.07S98.34,49,98.34,48.24Zm0,19.24V52c0-.72.64-1.07,1.94-1.07h.91c1.29,0,1.94.35,1.94,1.07V67.48c0,.71-.65,1.06-1.94,1.06h-.91C99,68.54,98.34,68.19,98.34,67.48Z"></path><path class="b139cb2e-1d72-4e23-a0e3-f708652454fa" d="M107.7,63.33v-19c0-.71.65-1.07,2-1.07h.91c1.29,0,1.94.36,1.94,1.07v19a1.69,1.69,0,0,0,.28,1.1,1.06,1.06,0,0,0,.89.34,1.77,1.77,0,0,0,.44-.07,2.33,2.33,0,0,1,.43-.07c.2,0,.37.17.52.51a5.07,5.07,0,0,1,.36,1.1,4.36,4.36,0,0,1,.13.8c0,1.09-1,1.63-3.11,1.63Q107.7,68.74,107.7,63.33Z"></path><path class="b139cb2e-1d72-4e23-a0e3-f708652454fa" d="M132.67,68c0,.34-.62.5-1.85.5h-1.36q-1.59,0-2-.63L123,60.23l-.13,0v7.22c0,.71-.65,1.06-1.95,1.06H120c-1.29,0-1.94-.35-1.94-1.06V44.37c0-.71.65-1.07,1.94-1.07h.91c1.3,0,1.95.36,1.95,1.07V57.59l.13,0,3.92-6a1.17,1.17,0,0,1,.71-.52,5.83,5.83,0,0,1,1.27-.11h1.19c1.22,0,1.82.16,1.82.5a1.28,1.28,0,0,1-.29.67l-4.51,6.61,5.29,8.61A1.38,1.38,0,0,1,132.67,68Z"></path><path class="b139cb2e-1d72-4e23-a0e3-f708652454fa" d="M136,66.39a9.45,9.45,0,0,1-2.09-6.53c0-3.14.69-5.44,2.09-6.91a7.57,7.57,0,0,1,5.78-2.2,6,6,0,0,1,5.3,2.4,10.46,10.46,0,0,1,1.71,6.21,2.34,2.34,0,0,1-.67,1.19q-.66.78-1,.78h-8.26a3.82,3.82,0,0,0,1.1,2.71,3.94,3.94,0,0,0,2.62.8,5.75,5.75,0,0,0,1.66-.22,15.36,15.36,0,0,0,1.55-.55,2,2,0,0,1,.72-.27c.21,0,.45.16.73.49a4.85,4.85,0,0,1,.68,1.1,2.62,2.62,0,0,1,.27,1c0,.51-.33,1-1,1.32a8.15,8.15,0,0,1-2.4.82,12.92,12.92,0,0,1-2.43.26Q138,68.74,136,66.39ZM144.08,58a4.52,4.52,0,0,0-.59-2.46,1.94,1.94,0,0,0-1.75-.92q-2.4,0-2.91,3.38Z"></path><path class="b139cb2e-1d72-4e23-a0e3-f708652454fa" d="M152.63,67.48V56.89a21.64,21.64,0,0,0-.08-2.25c-.05-.53-.12-1.11-.21-1.76a4,4,0,0,1-.09-.7c0-.35.43-.62,1.31-.8a11.65,11.65,0,0,1,2.32-.27.83.83,0,0,1,.81.45,4.28,4.28,0,0,1,.34,1c.07.36.12.6.14.73a6,6,0,0,1,1.45-1.85,3.13,3.13,0,0,1,2.09-.68,1.87,1.87,0,0,1,1.47.45,2.07,2.07,0,0,1,.37,1.35,6.52,6.52,0,0,1-.29,1.75c-.19.7-.43,1.05-.71,1.05a2.89,2.89,0,0,1-.68-.13,3.25,3.25,0,0,0-.84-.13,2.39,2.39,0,0,0-1.54.52,4.1,4.1,0,0,0-1.06,1.15V67.48c0,.71-.65,1.06-1.94,1.06h-.91C153.28,68.54,152.63,68.19,152.63,67.48Z"></path><path class="b139cb2e-1d72-4e23-a0e3-f708652454fa" d="M165.73,68.11c-1.12-.42-1.68-1-1.68-1.64a3.18,3.18,0,0,1,.61-1.62c.41-.63.78-.95,1.1-.95a1.58,1.58,0,0,1,.72.27,12,12,0,0,0,1.25.48,4,4,0,0,0,1.31.19,2.42,2.42,0,0,0,1.47-.37,1.27,1.27,0,0,0,0-2.07,14.77,14.77,0,0,0-2.07-1,15.78,15.78,0,0,1-1.95-1A4.51,4.51,0,0,1,165,58.81a5,5,0,0,1-.6-2.59,5.18,5.18,0,0,1,1.59-4,6.14,6.14,0,0,1,4.31-1.45,10.64,10.64,0,0,1,3.3.5c1,.33,1.57.81,1.57,1.43a3.91,3.91,0,0,1-.49,1.64c-.32.67-.63,1-.91,1a5.66,5.66,0,0,1-1-.35,5,5,0,0,0-1.91-.35c-1.15,0-1.72.41-1.72,1.24a1.23,1.23,0,0,0,.58,1.11,11.36,11.36,0,0,0,2.11,1,7.59,7.59,0,0,1,2.79,1.75,4.61,4.61,0,0,1,1.1,3.35,5.38,5.38,0,0,1-1.68,4.16,6.62,6.62,0,0,1-4.67,1.55A10.49,10.49,0,0,1,165.73,68.11Z"></path><path class="b139cb2e-1d72-4e23-a0e3-f708652454fa" d="M84.28,77.35l1.56-4.5h.79l-2,5.46H84l-2-5.46h.79Z"></path><path class="b139cb2e-1d72-4e23-a0e3-f708652454fa" d="M87.25,73.18a.41.41,0,0,1,.1-.29.49.49,0,0,1,.62,0,.41.41,0,0,1,.1.29.4.4,0,0,1-.1.28.49.49,0,0,1-.62,0A.4.4,0,0,1,87.25,73.18ZM88,78.31h-.69V74.25H88Z"></path><path class="b139cb2e-1d72-4e23-a0e3-f708652454fa" d="M91.47,77.23a.5.5,0,0,0-.21-.43,1.79,1.79,0,0,0-.74-.27,3.84,3.84,0,0,1-.83-.27,1.19,1.19,0,0,1-.46-.38.85.85,0,0,1-.15-.51,1.06,1.06,0,0,1,.42-.85,1.68,1.68,0,0,1,1.08-.34,1.74,1.74,0,0,1,1.12.35,1.12,1.12,0,0,1,.43.91h-.7a.63.63,0,0,0-.24-.49,1.09,1.09,0,0,0-1.2,0,.53.53,0,0,0-.21.43.4.4,0,0,0,.2.38,2.31,2.31,0,0,0,.71.25,3.61,3.61,0,0,1,.84.27,1.21,1.21,0,0,1,.48.39.92.92,0,0,1,.16.55,1,1,0,0,1-.44.88,1.86,1.86,0,0,1-1.12.32,2,2,0,0,1-.87-.17,1.31,1.31,0,0,1-.58-.48,1.12,1.12,0,0,1-.22-.67h.7a.68.68,0,0,0,.28.55,1.05,1.05,0,0,0,.69.21,1.17,1.17,0,0,0,.63-.16A.49.49,0,0,0,91.47,77.23Z"></path><path class="b139cb2e-1d72-4e23-a0e3-f708652454fa" d="M95.57,77.91a1.46,1.46,0,0,1-1.18.47,1.25,1.25,0,0,1-1-.37,1.61,1.61,0,0,1-.34-1.12V74.25h.69v2.62q0,.93.75.93a1,1,0,0,0,1.06-.6v-3h.69v4.06h-.66Z"></path><path class="b139cb2e-1d72-4e23-a0e3-f708652454fa" d="M99.81,78.31a1.28,1.28,0,0,1-.1-.43,1.53,1.53,0,0,1-1.16.5,1.43,1.43,0,0,1-1-.34,1.1,1.1,0,0,1-.38-.86,1.14,1.14,0,0,1,.48-1A2.28,2.28,0,0,1,99,75.85h.68v-.32a.78.78,0,0,0-.22-.58.88.88,0,0,0-.64-.21,1,1,0,0,0-.62.18.56.56,0,0,0-.25.46h-.7a.92.92,0,0,1,.22-.59,1.4,1.4,0,0,1,.58-.45,2,2,0,0,1,.81-.16,1.58,1.58,0,0,1,1.1.35,1.23,1.23,0,0,1,.41,1v1.87a2.4,2.4,0,0,0,.14.89v.06Zm-1.15-.53a1.22,1.22,0,0,0,.61-.17,1,1,0,0,0,.43-.44v-.83h-.54c-.86,0-1.28.25-1.28.75a.64.64,0,0,0,.22.51A.84.84,0,0,0,98.66,77.78Z"></path><path class="b139cb2e-1d72-4e23-a0e3-f708652454fa" d="M102.23,78.31h-.69V72.55h.69Z"></path><path class="b139cb2e-1d72-4e23-a0e3-f708652454fa" d="M106.28,72.85l1.78,4.45,1.79-4.45h.93v5.46h-.72V76.18l.07-2.29-1.79,4.42h-.55L106,73.9l.07,2.28v2.13h-.72V72.85Z"></path><path class="b139cb2e-1d72-4e23-a0e3-f708652454fa" d="M114.45,78.31a1.59,1.59,0,0,1-.1-.43,1.52,1.52,0,0,1-1.15.5,1.44,1.44,0,0,1-1-.34,1.1,1.1,0,0,1-.38-.86,1.14,1.14,0,0,1,.48-1,2.3,2.3,0,0,1,1.36-.35h.67v-.32a.78.78,0,0,0-.22-.58.88.88,0,0,0-.64-.21,1,1,0,0,0-.62.18.56.56,0,0,0-.25.46h-.7a.92.92,0,0,1,.22-.59,1.4,1.4,0,0,1,.58-.45,2,2,0,0,1,.81-.16,1.56,1.56,0,0,1,1.1.35,1.23,1.23,0,0,1,.41,1v1.87a2.2,2.2,0,0,0,.15.89v.06Zm-1.15-.53a1.29,1.29,0,0,0,.62-.17,1,1,0,0,0,.42-.44v-.83h-.54c-.85,0-1.28.25-1.28.75a.64.64,0,0,0,.22.51A.84.84,0,0,0,113.3,77.78Z"></path><path class="b139cb2e-1d72-4e23-a0e3-f708652454fa" d="M118.08,74.87l-.34,0a.92.92,0,0,0-.93.58v2.88h-.69V74.25h.68v.47a1.07,1.07,0,0,1,1-.54.64.64,0,0,1,.31,0Z"></path><path class="b139cb2e-1d72-4e23-a0e3-f708652454fa" d="M119.85,76.43l-.43.45v1.43h-.7V72.55h.7V76l.37-.44,1.26-1.34h.85L120.32,76l1.76,2.36h-.81Z"></path><path class="b139cb2e-1d72-4e23-a0e3-f708652454fa" d="M124.22,78.38a1.76,1.76,0,0,1-1.34-.54,2,2,0,0,1-.52-1.45v-.12a2.45,2.45,0,0,1,.23-1.08,1.72,1.72,0,0,1,.64-.74,1.63,1.63,0,0,1,.9-.27,1.5,1.5,0,0,1,1.23.52,2.26,2.26,0,0,1,.44,1.49v.29h-2.75a1.47,1.47,0,0,0,.35,1,1.14,1.14,0,0,0,.86.37,1.21,1.21,0,0,0,.62-.15,1.53,1.53,0,0,0,.44-.4l.43.33A1.71,1.71,0,0,1,124.22,78.38Zm-.09-3.63a.92.92,0,0,0-.7.3,1.55,1.55,0,0,0-.36.86h2v0a1.3,1.3,0,0,0-.29-.82A.85.85,0,0,0,124.13,74.75Z"></path><path class="b139cb2e-1d72-4e23-a0e3-f708652454fa" d="M127.54,73.27v1h.76v.54h-.76v2.52a.53.53,0,0,0,.11.36.41.41,0,0,0,.34.13,1.76,1.76,0,0,0,.33,0v.56a2,2,0,0,1-.53.07.84.84,0,0,1-.7-.28,1.18,1.18,0,0,1-.24-.8V74.79h-.74v-.54h.74v-1Z"></path><path class="b139cb2e-1d72-4e23-a0e3-f708652454fa" d="M129.11,73.18a.42.42,0,0,1,.11-.29.36.36,0,0,1,.3-.11.38.38,0,0,1,.31.11.41.41,0,0,1,.1.29.4.4,0,0,1-.1.28.42.42,0,0,1-.31.11.39.39,0,0,1-.3-.11A.41.41,0,0,1,129.11,73.18Zm.75,5.13h-.69V74.25h.69Z"></path><path class="b139cb2e-1d72-4e23-a0e3-f708652454fa" d="M131.63,74.25l0,.51a1.48,1.48,0,0,1,1.22-.58c.85,0,1.28.48,1.29,1.45v2.68h-.69V75.62a.91.91,0,0,0-.2-.64.81.81,0,0,0-.61-.21,1,1,0,0,0-.6.18,1.12,1.12,0,0,0-.39.47v2.89H131V74.25Z"></path><path class="b139cb2e-1d72-4e23-a0e3-f708652454fa" d="M135,76.25a2.38,2.38,0,0,1,.44-1.51,1.52,1.52,0,0,1,2.32,0l0-.45h.63v4a1.61,1.61,0,0,1-.47,1.24,1.73,1.73,0,0,1-1.25.46,2.19,2.19,0,0,1-.86-.19,1.52,1.52,0,0,1-.64-.52l.36-.41a1.35,1.35,0,0,0,1.09.55,1,1,0,0,0,1.07-1.09V77.9a1.51,1.51,0,0,1-2.29-.09A2.51,2.51,0,0,1,135,76.25Zm.7.08A1.79,1.79,0,0,0,136,77.4a.93.93,0,0,0,.79.4,1,1,0,0,0,1-.6V75.35a1,1,0,0,0-1-.58.92.92,0,0,0-.79.39A2,2,0,0,0,135.74,76.33Z"></path></g></g></svg>