<?xml version="1.0" encoding="iso-8859-1"?>
<!-- Generator: Adobe Illustrator 19.0.0, SVG Export Plug-In . SVG Version: 6.00 Build 0)  -->
<svg version="1.1" id="Capa_1" xmlns="http://www.w3.org/2000/svg" xmlns:xlink="http://www.w3.org/1999/xlink" x="0px" y="0px"
	 viewBox="0 0 512 512" style="enable-background:new 0 0 512 512;" xml:space="preserve">
<g>
	<g>
		<path d="M504.337,93.749c4.232,0,7.663-3.431,7.663-7.663V75.998c0-24.524-19.952-44.477-44.477-44.477H44.477
			C19.952,31.521,0,51.473,0,75.998v225.226v57.321c0,24.524,19.952,44.477,44.477,44.477h149.601v62.132H167.83
			c-4.232,0-7.663,3.431-7.663,7.663s3.431,7.663,7.663,7.663h33.911h108.517h33.911c4.232,0,7.663-3.431,7.663-7.663
			s-3.431-7.663-7.663-7.663h-26.248v-62.132h149.601c24.524,0,44.477-19.952,44.477-44.477v-57.321V114.611
			c0-4.232-3.431-7.663-7.663-7.663s-7.663,3.431-7.663,7.663V293.56H79.779c-4.232,0-7.663,3.431-7.663,7.663
			s3.431,7.663,7.663,7.663h416.895v49.658c0,16.073-13.077,29.15-29.15,29.15H310.259H201.741H44.477
			c-16.073,0-29.15-13.077-29.15-29.15v-49.658h24.617c4.232,0,7.663-3.431,7.663-7.663s-3.431-7.663-7.663-7.663H15.327V75.998
			c0-16.073,13.077-29.15,29.15-29.15h423.046c16.073,0,29.15,13.077,29.15,29.15v10.088
			C496.673,90.318,500.104,93.749,504.337,93.749z M209.404,403.021h93.191v62.132h-93.191V403.021z"/>
	</g>
</g>
<g>
	<g>
		<circle cx="256" cy="346.859" r="7.663"/>
	</g>
</g>
<g>
</g>
<g>
</g>
<g>
</g>
<g>
</g>
<g>
</g>
<g>
</g>
<g>
</g>
<g>
</g>
<g>
</g>
<g>
</g>
<g>
</g>
<g>
</g>
<g>
</g>
<g>
</g>
<g>
</g>
</svg>
