<?xml version="1.0" encoding="iso-8859-1"?>
<!-- Generator: Adobe Illustrator 19.0.0, SVG Export Plug-In . SVG Version: 6.00 Build 0)  -->
<svg version="1.1" id="Capa_1" xmlns="http://www.w3.org/2000/svg" xmlns:xlink="http://www.w3.org/1999/xlink" x="0px" y="0px"
	 viewBox="0 0 512.001 512.001" style="enable-background:new 0 0 512.001 512.001;" xml:space="preserve">
<g>
	<g>
		<path d="M421.389,0H90.611C64.545,0,43.339,21.206,43.339,47.273v417.455c0,26.066,21.206,47.273,47.273,47.273h330.777
			c26.066,0,47.273-21.206,47.273-47.273V47.273C468.661,21.206,447.455,0,421.389,0z M453.063,428.166h-36.917
			c-4.307,0-7.799,3.492-7.799,7.799s3.492,7.799,7.799,7.799h36.917v20.962c0,17.467-14.209,31.675-31.674,31.675H90.611
			c-17.465,0-31.674-14.209-31.674-31.674v-20.962h320.812c4.307,0,7.799-3.492,7.799-7.799s-3.492-7.799-7.799-7.799H58.937V47.273
			c0-17.465,14.209-31.674,31.674-31.674h330.777c17.465,0,31.674,14.209,31.674,31.674v26.299H83.722
			c-4.307,0-7.799,3.492-7.799,7.799s3.492,7.799,7.799,7.799h369.341V428.166z"/>
	</g>
</g>
<g>
	<g>
		<circle cx="256" cy="470.22" r="7.799"/>
	</g>
</g>
<g>
	<g>
		<path d="M279.461,36.122h-46.922c-4.307,0-7.799,3.492-7.799,7.799s3.492,7.799,7.799,7.799h46.922
			c4.307,0,7.799-3.492,7.799-7.799S283.768,36.122,279.461,36.122z"/>
	</g>
</g>
<g>
</g>
<g>
</g>
<g>
</g>
<g>
</g>
<g>
</g>
<g>
</g>
<g>
</g>
<g>
</g>
<g>
</g>
<g>
</g>
<g>
</g>
<g>
</g>
<g>
</g>
<g>
</g>
<g>
</g>
</svg>
